/* XPM */
static char *_464323578264df0dea4dffadc75a05aHwP7NSgVUwoM9VcG[] = {
/* columns rows colors chars-per-pixel */
"48 64 5 1 ",
"  c gray1",
". c #323237",
"X c #164100",
"o c #45464F",
"O c #666667",
/* pixels */
"  OOOOOoOOoO.OO O OOOoOXXOoOOOOOOXXOOXXOoOOoo XX",
" oXXO.O.OO...oOXXOXXOOOOOXOOOoOXOXOOXXXOOOOXoXOX",
" O.XOoO.ooooOOooO.OO..ooOXOOOOOOXXOOoOOOOOOoOXXX",
"OXOXOOOOOOO.OOOO..XXO.OOOOooOOoOO........oOOOoX ",
"OXOO....OOo..OOo..XXOOOOOO....OOO.OOOOOOOO..OOO ",
"O.OOO..OoOX.OoOO .OOOoOoO..OOOOOO.O...OOOOOOOOOO",
"O  oOOOOOOX.OOO O.OOOOOO.oOOOoOO..OOO..OOOOOOOOX",
" O.OO....OXOOOO O.ooOOOO.OOOO OOOOOoOOOO. O..OOX",
" O.OOoOO.OXooOOO.OOOoOOOO.OOOOOOoO..OOOO. OO.XXX",
"OOOoOOOO.OX.OOO..ooOOOOOoOOO..OOOOO..OO OOO.OoXO",
"oXO.OoOO.XX. OO.O OO  OOO  OOO...OXoOOO   O.OOOO",
"OXXXOO.XXXoOOO.oO OOOO.OOOOOoOO  OXOooO  OO..OOO",
"OOXX.OOXO..OOO.oOOOOoO.OOOOOOOO  OXXOO OOoO.OOOO",
"OOXoOoXOO.O..OOOOOOOOO.Ooo..OO  OOXXXOOOoOOooOOX",
"OOXXXXXOOOOO.OOO.OOOOXXXOO.OOOOOOXXXoOOOoOOOOOXX",
"o.OOOOXOOooO.XOOOO.OOOoOOOOooOOOXOOXXOOOoOOOXXXO",
"O..oOOX.OOXXOXO.o OoO.OXX.OOO ...oOOX..OoOO..oXO",
"OOOOOOX.OXOXXOO  OoOOOOXOOOOOO  OOOOXOOOOOOOOo.O",
"OO..OOX.XXooOOO.OOOOOOOXXOOXOOo    OXooOO..OOOOO",
"oOO.OOXOOO.oOOO.oOOOOO.OOXOOOOOOOOO OOO..OOoO.OO",
"OOOO.XOO.O.OOOOooO...O...O..oOOO...O O..OoOOOOO ",
"OOOoOOXO.OOO  OoO..   OOOO OOOOOOO OOoOOOOOOOOO ",
"O.O..OXXoOOOOOoOOOoOOOoOoooooOOO OOOOo OOOOooOOO",
"..OXXOO O.OOO.OO..OOOOOOOOOOOOoOOOOOOOOOoOOOOo O",
"OOXOXO  O.OOo.OO.oOOoO.OOO..OO OOoOOOO OOO.... O",
"OXOoXOO OOOO  OO  .OO.OOOoOOO OO...... OOOOOoOO ",
"XXOOOOoOOOooOOOOOO OOOOOOOoOO OoOOOoOO OooOOOO O",
"O....O.OOOOOOOOOOOO OOOOOOoOOoOOO OOOO OOoOO O O",
"OO O......OOOO...OOOOOoOOOoOOooOOO OOO   O..o. O",
"OoOOOOOOO...OO  .OOOoOOOO..OX..Ooo OoOOOO.OOOOOO",
"OO  o.OOOOO OOOOO.OO....OOOXOO..OOOOo....OOoO.o ",
" OOO..OOoOOOOOOOOO...OOOOOoXOOO...O..OO.OOOoOOoO",
"Ooo.. O oO.OOOOoO..OoOOoOOXXOOOo OOOOOOOOOOOOOo ",
"O Oo  OoOO.oOOO...OO..OO.XXOooO  OOOOOOOoO..OOo ",
"OOO. OOOO .oOO..OOooOOOOOOXO. .O..OOOO..oOo.OOO ",
"OoO  OoOOo.OOOOoOOOOOOOoOOOO  OOOOOo..OOOOoOOoOO",
"OO  OOOOOOO OOOOOOOooOOoO.. .OOOOOo OOO OOO.OoOO",
"OOOO.OOOOOO.OOoOOOOOoOOO..O OO.OOoOOOO..OOO..OOO",
"OoOOOo.  OOO.OOOO..OO..OOOOoOO..OOO...OOO.OoO. O",
"OOOOOO. OOOO.OOOOOOOOOOOOOoOOOoO.O.OoOOOoO..O..O",
"OoOOO  .OOoOO...OooO.OOOOOOOOOOOOOOOOOOOO OOOOOO",
"Ooo..OOOOOOOOoO..OoO.OoO.O..OOoOoOOOooOOO OOOO.O",
"OOo.O OOOOOOOoOOO.oO..OOOOOOOO.OOO...OOO. OOoOOO",
"OO.OOOoO..OoO...O.OOO.O..   OoOO O.oOO   ...OOOO",
"OOoO....O.OO..OOO ooOOOOO OOOOOO.OOOoOO O oOOOoO",
"OoOOOOOOOOOOO OoOOO OOOO  .oOoO..OOOOOOOOO OOOO.",
"OoOOOOOOOOo.OOOOOOOO OO. O.O...OOOOO.O..OO  O..O",
"OoOOoOOoOOOOoOOOOo OOO.  OO..OOOOo...OOO oOOOOOO",
"OoooOOO..OO.OOOOO..O..OOO  OOOOOOO OO.OO.o... OO",
".OoOO.O.OoO.OO oOOOOo.OOOO OOoO..OO..oOOOooooOOO",
"oOoOoO..OOo.O .OOOOooOOO..OOOO.O.OO.OoOO.OOOOo.O",
"oO.XXOOOO..OOO.OOOOOOOOoO.XOXOOOOO....OOoOoOOO.O",
"OoOXXOOOO.OOOOOOOO...OOOO.OoOXOO..OOO..OOOOOoO.O",
"OOO..oO..OO OO..O.OO.OOooOooOX.Oo.OOO.OoOOOOOO.O",
"OoOOOOOoOOOOoOOOO.OOOooOOO.XXXOOO.OOXOOOOoOOOoOO",
"OoOOOOOoOOOOOOOOo.OOOOOO..XXOOoOOOOOX.O.OOOO..OO",
"OoO.oOOoooOOOOOOoooOOO....XOoOO.OOOOXOOOoOO..OOO",
"OoO.O...oOO..O.XOOOOO..OOXOOO..OOOXXX..OOOOoOoO ",
" oOO.OO..OoOOO.XOOXOOO.OOXOoO.OOOXXOOO.oOOOOXXXX",
"oOOOOOOOOOo....XOOXO.O...XOXXOOoXO.OOOOOOO...OXX",
"o OXOO.OOOOOOXXXooXXOXOOoXXXXXX.XOO.OOOOOO.XXoO ",
"XXoOOoOOO.OXXX.OoOOOXXXXXOooOOX.OOOOOOoOoOOXO...",
"XXXO.OOOOOOXXOXOOOO   O  O  XX  OoOOoOO ...XOoOX",
" X OOOOOOXXXOXX O   OOOOOOOOO OOO   OO  OOOXXXXO"
};
