/* XPM */
static char *_8ac567b80b444f59c69345ab84b5164x1cJniHBMO1FugkG[] = {
/* columns rows colors chars-per-pixel */
"48 64 14 1 ",
"  c None",
". c black",
"X c #070000",
"o c #060404",
"O c #603315",
"+ c #D42525",
"@ c #018B2A",
"# c #59A523",
"$ c #F2E002",
"% c #D09D74",
"& c #CCB0B0",
"* c #E3CCCC",
"= c #E1D1C5",
"- c #E7D7D7",
/* pixels */
"                                                ",
"                                                ",
"                                                ",
"                                                ",
"                                                ",
"                                                ",
"                                                ",
"                                                ",
"                                                ",
"                                                ",
"        .................................       ",
"        .................................       ",
"      oo++++++++++++++++**+++++++++++++++.      ",
"      oo++++++++++++++++**+++++++++++++++.      ",
"     .++++++++*++++++++*$$*++++++**+++++++..    ",
"     .++++++++*++++++++*$$*++++++**+++++++..    ",
"   ..++++++*+++++++++**$##$**+++++++**++++++.   ",
"   ..++++++*+++++++++**$##$**+++++++**++++++.   ",
"  .+++++*+++++++++++*$$$$$$$$*+++++++++**++++.. ",
"  .+++++*+++++++++++*$$$$$$$$*+++++++++**++++.. ",
"..+++*++++++++++++**************++++++++++**+++.",
"..+++*++++++++++++**************++++++++++**+++.",
"...........%==%==%==============%==%==%.........",
"...........%==%==%==============%==%==%.........",
"           .%%=%%=%%==========%%=%%=%%.         ",
"           .%%=%%=%%==========%%=%%=%%.         ",
"            ..%==%==%========%==%==%..          ",
"            ..%==%==%========%==%==%..          ",
"              .%%=%%=%%====%%=%%=%%.            ",
"              .%%=%%=%%====%%=%%=%%.            ",
"      @@       ..-==%%%%%%%%%%==-oo             ",
"      @@       ..-==%%%%%%%%%%==-oo             ",
"     @         ..-==-........-==-..             ",
"     @         ..-==-........-==-..             ",
"   @@   @      ..---.XX&XX&XXX---..             ",
"   @@   @      ..---.XX&XX&XXX---..             ",
"     @   @@    ..-..X&&X&&X&&X..-..             ",
"     @   @@    ..-..X&&X&&X&&X..-..             ",
"      @@ @@@   ..---..........---..      @@@    ",
"      @@ @@@   ..---..........---..      @@@    ",
"@@   @      @@ ..----------------..      @     @",
"@@   @      @@ ..----------------..      @     @",
"  @   @@    ...%%%%%%%%%%%%%%%%%%%%... @@    @@ ",
"  @   @@    ...%%%%%%%%%%%%%%%%%%%%... @@    @@ ",
"@@   @     .%%%%%%%%%%%%%%%%%%%%%%%%%%.  @  @   ",
"@@   @     .%%%%%%%%%%%%%%%%%%%%%%%%%%.  @  @   ",
"  @   @@   .%%%%%%%%%%%%%%%%%%%%%%%%%%.@@   @@@ ",
"  @   @@   .%%%%%%%%%%%%%%%%%%%%%%%%%%.@@   @@@ ",
"@@   .......................................@   ",
"@@   .......................................@   ",
"  @..OOOOOOOOOOOOOOOOOOOOOOOOOOOOOOOOOOOOOOO.   ",
"  @..OOOOOOOOOOOOOOOOOOOOOOOOOOOOOOOOOOOOOOO.   ",
"  .OOOOOOOOOOOOOOOOOOOOOOOOOOOOOOOOOOOOOOOOOO.. ",
"  .OOOOOOOOOOOOOOOOOOOOOOOOOOOOOOOOOOOOOOOOOO.. ",
"..OOOOOOOOOOOOOOOOOOOOOOOOOOOOOOOOOOOOOOOOOOOOO.",
"..OOOOOOOOOOOOOOOOOOOOOOOOOOOOOOOOOOOOOOOOOOOOO.",
"..OOOOOOOOOOOOOOOOOOOOOOOOOOOOOOOOOOOOOOOOOOOOO.",
"..OOOOOOOOOOOOOOOOOOOOOOOOOOOOOOOOOOOOOOOOOOOOO.",
"..OOOOOOOOOOOOOOOOOOOOOOOOOOOOOOOOOOOOOOOOOOOOO.",
"..OOOOOOOOOOOOOOOOOOOOOOOOOOOOOOOOOOOOOOOOOOOOO.",
"..OOOOOOOOOOOOOOOOOOOOOOOOOOOOOOOOOOOOOOOOOOOOO.",
"..OOOOOOOOOOOOOOOOOOOOOOOOOOOOOOOOOOOOOOOOOOOOO.",
"..OOOOOOOOOOOOOOOOOOOOOOOOOOOOOOOOOOOOOOOOOOOOO.",
"..OOOOOOOOOOOOOOOOOOOOOOOOOOOOOOOOOOOOOOOOOOOOO."
};
