/* XPM */
static char *db58b453d0994dae80c5c84969781856vsugswJ0311jw370[] = {
/* columns rows colors chars-per-pixel */
"48 64 3 1 ",
"  c None",
". c black",
"X c #F1E8E8",
/* pixels */
"                                                ",
"                                                ",
"                                                ",
"                                                ",
"                                                ",
"                                                ",
"                                                ",
"                                                ",
"                                                ",
"                                                ",
"                                                ",
"                                                ",
"                                                ",
"                                                ",
"                                                ",
"                                                ",
"                                                ",
"                                                ",
"                                                ",
"            ............                        ",
"            ..X......X..                        ",
"            ..X......X..                        ",
"            ..X......X..                        ",
"            ..X......X..                        ",
"            ..XXXXXXXX..                        ",
"            ..XXXXXXXX..                        ",
"            ..X......X..                        ",
"            ..X......X..                        ",
"            ..X......X..                        ",
"            ..X......X..                        ",
"            ............                        ",
"                                                ",
"                                                ",
"                                                ",
"                                                ",
"                                                ",
"                                                ",
"                                                ",
"                                                ",
"                                                ",
"                                                ",
"                                                ",
"                                                ",
"                                                ",
"                                                ",
"                                                ",
"                                                ",
"                                                ",
"                                                ",
"                                                ",
"                                                ",
"                                                ",
"                                                ",
"                                                ",
"                                                ",
"                                                ",
"                                                ",
"                                                ",
"                                                ",
"                                                ",
"                                                ",
"                                                ",
"                                                ",
"                                                "
};
