/* XPM */
static char *cde6b6417f9741299d34704102914aa8LsaGC3KqttAWFH7B[] = {
/* columns rows colors chars-per-pixel */
"48 64 11 1 ",
"  c None",
". c black",
"X c gray1",
"o c #E62020",
"O c #807F7F",
"+ c #50D90A",
"@ c #4CE200",
"# c #58E60F",
"$ c #7FE44B",
"% c #8E918C",
"& c #F1E8E8",
/* pixels */
"                                                ",
"                                                ",
"                                                ",
"                                                ",
"                                                ",
"                                                ",
"                                                ",
"                                                ",
"                                                ",
"                                                ",
"                                                ",
"                                                ",
"                                                ",
"                                                ",
"                                                ",
"                                                ",
"                                                ",
"                                                ",
"                                                ",
"                                                ",
"                                                ",
"                                                ",
"                                                ",
"                                                ",
"                                                ",
"                      &&&&                      ",
"                     &&&&&&                     ",
"                    &++&&++&                    ",
"                   &++&&&&++&                   ",
"                  &++&&@+&&++&                  ",
"                 &++&&++@+&&++&                 ",
"                &++&&++#++@&&++&                ",
"                &+&&++#+$+++&&+&                ",
"                &&#&+$++#+#+&#&&                ",
"                &#+&++#+++++&##&                ",
"                &+#&$+++@+$+&#+&                ",
"                &##&++#++$$+&##&                ",
"                &#+&++@+@+++&##&                ",
"                &##&+$+@$+#+&#+&                ",
"                &&#&+#++#+++&#&&                ",
"                &+&&+++#+$++&&#&                ",
"                &#+&&+++$++&&#+&                ",
"                &+#&+&+@++&+&+#&                ",
"                &#+&++&+@&++&##&                ",
"                &+..XXXXXXXX..#&                ",
"                &.O.%%%%%%%%XO.&                ",
"                .OO..%%oo%%.X%O.                ",
"                .O%XXXXXXX...OO.                ",
"                ..OOOOOOOOOOOO..                ",
"                ................                ",
"                                                ",
"                                                ",
"                                                ",
"                                                ",
"                                                ",
"                                                ",
"                                                ",
"                                                ",
"                                                ",
"                                                ",
"                                                ",
"                                                ",
"                                                ",
"                                                "
};
