/* XPM */
static char *_1df4d1dd18f4087d837f5c1f5957431XXrvJF5wXcJhyyu8[] = {
/* columns rows colors chars-per-pixel */
"48 64 7 1 ",
"  c None",
". c black",
"X c #093C0A",
"o c #08690B",
"O c #454343",
"+ c #45464F",
"@ c #666667",
/* pixels */
"                                                ",
"                                                ",
"                                                ",
"                                                ",
"                                                ",
"                                                ",
"                                                ",
"                                                ",
"                                                ",
"                                                ",
"                                                ",
"                                                ",
"                                                ",
"                                                ",
"                                                ",
"                                                ",
"               ............                     ",
"               .X@+OOOO+@O.                     ",
"               .Xo@+OO+@OO.                     ",
"                .XO@++@Oo.                      ",
"                 .oO@@OO.                       ",
"                  .O@@O.                        ",
"                  .O@@O.                        ",
"                  .O@@X.                        ",
"                  .O@XX.                        ",
"                  .O@@X.                        ",
"                  .X@@O.                        ",
"                  .Xo@O.                        ",
"                  .OX@O.                        ",
"                  .O@@O.                        ",
"                  .O@@O.                        ",
"                  .O@@O.                        ",
"                  .OXXO.                        ",
"                  .OX@O.                        ",
"                  .X@@O.                        ",
"                  .X@@O.                        ",
"                  .O@@O.                        ",
"                  .O@@O.                        ",
"                  .O@@O.                        ",
"                  .O@XO.                        ",
"                  .O@@X.                        ",
"                 .oO@@OO.                       ",
"                .XO@++@OO.                      ",
"               .XO@+OO+@Xo.                     ",
"               .O@+OOOO+@X.                     ",
"               ............                     ",
"                                                ",
"                                                ",
"                                                ",
"                                                ",
"                                                ",
"                                                ",
"                                                ",
"                                                ",
"                                                ",
"                                                ",
"                                                ",
"                                                ",
"                                                ",
"                                                ",
"                                                ",
"                                                ",
"                                                ",
"                                                "
};
