/* XPM */
static char *ff0d801f87b04d2282719ccb1f2a22cbHDLJnubkSelomHuK[] = {
/* columns rows colors chars-per-pixel */
"48 64 5 1 ",
"  c None",
". c black",
"X c #182B00",
"o c #222222",
"O c #284900",
/* pixels */
"................................................",
"................................................",
"  ..ooooooooo.oooooooooooooooooooXXoooooooo...  ",
"  ..ooooooooo.ooooooooooooooooXXoXXoooooo..o..  ",
"    ..oooooooo..oo.oooooooooooXXXXooooo..o..    ",
"    ..ooooooo.o.o.ooooooooooooooXXoooo.ooo..    ",
"    ..oooooo.ooo.o.ooooooooooooXXooooOOooo..    ",
"    ..ooooooooooooo.ooooooooooOOXooooOOXXX..    ",
"    ....ooooooooooo.ooooooooooOOooooooXXXX..    ",
"    ....ooooooooooo.oooooooooooooooooooo....    ",
"      ..oooooooooooooooooooooooooooooooo....    ",
"      ..oooooooooooooooooooooooooooooooo..      ",
"      ...ooooooooooooooooooooooooooooooo..      ",
"      ..oooooooooooooooooooooooooooooooo..      ",
"      ..oo.oooooooooooooooooooooo.oooooo..      ",
"      ..oooooo.ooooooooooooooooooo..oooo..      ",
"      ...oo.o.ooooooooooooooooooooo.oooo..      ",
"      ..oo.o.ooooooooooooooooooooooo...o..      ",
"      ..o.ooo.oooooooooooooooooooooo.oo...      ",
"      ...ooo.ooooooooooooooooooooooo.ooo..      ",
"      ..o.oooooooooooooooooooooooo..oooo..      ",
"      ..oo.oooooooooooooooooooooo.oooooo..      ",
"      ..o.oooooooooooooooooooooo.ooooooo..      ",
"      ...ooooooooooooooooooooooooooooooo..      ",
"      ..oooooooooooooooooooooooooooooooo..      ",
"      ..oooooooooooooooooooooooooooooooo..      ",
"      ..oooooooooooooooooooooooooooooooo..      ",
"      ..oooooooooooooooooooooooooooooooo..      ",
"      ..ooooooooooooooooooooooooooooOOoo..      ",
"      ..ooooooooooooooooooooooooooXXOOoo..      ",
"      ..oooooooooooooooooooooooOOoXXoooo..      ",
"      ..oooooooooooooooooooooooOOXoooooo..      ",
"      ..ooooooooooooooooooooooXXXXoooooo..      ",
"      ..ooOOooooooooooooooooooXXXXoooooo..      ",
"      ..ooOOXoooooooooooooooooooXXXooooo..      ",
"      ..oooXXoooooooooooooooooooOOXXXooo..      ",
"      ..oXXoooooooooooooooooooooOOoXXXoo..      ",
"      ..XXXoooooooooooooooooooooooooXXoo..      ",
"      ..XXoOOoooooooooooooooooooooooXXXX..      ",
"      ..ooXOOoooooooooooooooooooooooooXX..      ",
"      ..ooXXoooooooooooooooooooooooooooo..      ",
"      ..oooooooooooooooooooooooooooooooo..      ",
"      ..oooooooooooooooooooooooooooooooo..      ",
"      ..oooooooooooooooooooooooooooooooo..      ",
"      ..oooooooooooooooooooooooooooooooo..      ",
"      ..oooooooooooooooooooooooooooooooo..      ",
"      ..oooooooooooooooooooooooooooooooo..      ",
"      ..oooooooooooooooooooooooooooooooo..      ",
"      ..oooooooooooooooooooooooooooooooo..      ",
"      ..oooooooooooooooooooooooooooooooo..      ",
"      ..oooooooooooooooooooooooooooooooo..      ",
"      ..oooo.ooooooooooooooooooooooooooo..      ",
"      ..oooooooooooooooooooooooooooooOOo..      ",
"      ..o.oooooooooooooooooooooooooooOOo..      ",
"    .....oooooooooooooooooooooooooo.oXXX....    ",
"    ....ooooooooooooooooooooooooooo.oXXX....    ",
"    ..oo.ooooooooooooooooooooooooooo..o.oo..    ",
"    ..ooo..ooooooooooooooooooooooooooo.ooo..    ",
"    ..oo.oo.ooooooooooooooooooooooooo.oo....    ",
"    ...ooooooooooooooooooooooooooooooo..oo..    ",
"  ..XXo.ooooooooooooooooooooooooooooo.ooXXXX..  ",
"  ..XXoo.oooooooooooooooooooooooooooooooXXXX..  ",
"................................................",
"................................................"
};
