/* XPM */
static char *d82acb6d8ebe43da83088ca14ed3efbbpO4M1qtVk05IdxyK[] = {
/* columns rows colors chars-per-pixel */
"48 64 2 1 ",
"  c black",
". c #F1E8E8",
/* pixels */
"                                                ",
"                                                ",
"                                                ",
"                                                ",
"                                  ........      ",
"       ........                   ........      ",
"       ........                   ........      ",
"       ........                   ........      ",
"       ........                   ........      ",
"       ........                   ........      ",
"       ........                   ........      ",
"       ........                   ........      ",
"       ........                   ........      ",
"       ........                   ........      ",
"       ........                   ........      ",
"       ........                   ........      ",
"       ........                   ........      ",
"       ........                   ........      ",
"       ........                   ........      ",
"       ........                   ........      ",
"       ........                   ........      ",
"       ........                   ........      ",
"       ........                   ........      ",
"       ........                   ........      ",
"       ........                   ........      ",
"       ...................................      ",
"       ...................................      ",
"       ...................................      ",
"       ...................................      ",
"       ...................................      ",
"       ...................................      ",
"       ...................................      ",
"       ...................................      ",
"       ...................................      ",
"       ........                   ........      ",
"       ........                   ........      ",
"       ........                   ........      ",
"       ........                   ........      ",
"       ........                   ........      ",
"       ........                   ........      ",
"       ........                   ........      ",
"       ........                   ........      ",
"       ........                   ........      ",
"       ........                   ........      ",
"       ........                   ........      ",
"       ........                   ........      ",
"       ........                   ........      ",
"       ........                   ........      ",
"       ........                   ........      ",
"       ........                   ........      ",
"       ........                   ........      ",
"       ........                   ........      ",
"       ........                   ........      ",
"       ........                   ........      ",
"       ........                   ........      ",
"       ........                   ........      ",
"       ........                   ........      ",
"       ........                   ........      ",
"       ........                   ........      ",
"                                                ",
"                                                ",
"                                                ",
"                                                ",
"                                                "
};
